<svg id="Illustration_Action_Diagnostic" data-name="Illustration/Action/Diagnostic" xmlns="http://www.w3.org/2000/svg" width="109.6" height="110.287" viewBox="0 0 109.6 110.287">
  <circle id="Elipse_101" data-name="Elipse 101" cx="49.277" cy="49.277" r="49.277" transform="translate(8.946 11.734)" fill="#ebf7ff"/>
  <path id="Trazado_1786" data-name="Trazado 1786" d="M87.683,11.675A1.979,1.979,0,1,1,85.7,9.7,1.979,1.979,0,0,1,87.683,11.675Z" transform="translate(-5.2 -4.856)" fill="#0063a6"/>
  <path id="Trazado_1787" data-name="Trazado 1787" d="M18.492,109.25a1.979,1.979,0,1,1-1.979-1.979A1.979,1.979,0,0,1,18.492,109.25Z" transform="translate(-5.2 -4.856)" fill="#0063a6"/>
  <g id="Grupo_1331" data-name="Grupo 1331" transform="translate(-5.2 -4.856)">
    <path id="Trazado_1788" data-name="Trazado 1788" d="M44.195,10.2a.5.5,0,0,1-.5-.5V5.356a.5.5,0,0,1,1,0V9.7A.5.5,0,0,1,44.195,10.2Z" fill="#fc990e"/>
    <path id="Trazado_1789" data-name="Trazado 1789" d="M46.365,8.026h-4.34a.5.5,0,0,1,0-1h4.34a.5.5,0,0,1,0,1Z" fill="#fc990e"/>
  </g>
  <g id="Grupo_1332" data-name="Grupo 1332" transform="translate(-5.2 -4.856)">
    <path id="Trazado_1790" data-name="Trazado 1790" d="M109.153,106.77a.5.5,0,0,1-.5-.5v-4.34a.5.5,0,0,1,1,0v4.34A.5.5,0,0,1,109.153,106.77Z" fill="#fc990e"/>
    <path id="Trazado_1791" data-name="Trazado 1791" d="M111.323,104.6h-4.34a.5.5,0,0,1,0-1h4.34a.5.5,0,0,1,0,1Z" fill="#fc990e"/>
  </g>
  <g id="Grupo_1333" data-name="Grupo 1333" transform="translate(-5.2 -4.856)">
    <path id="Trazado_1792" data-name="Trazado 1792" d="M101.046,78.652a.5.5,0,0,1-.5-.5V73.811a.5.5,0,0,1,1,0v4.341A.5.5,0,0,1,101.046,78.652Z" fill="#dceefa"/>
    <path id="Trazado_1793" data-name="Trazado 1793" d="M103.216,76.481h-4.34a.5.5,0,0,1,0-1h4.34a.5.5,0,0,1,0,1Z" fill="#dceefa"/>
  </g>
  <g id="Grupo_1334" data-name="Grupo 1334" transform="translate(-5.2 -4.856)">
    <path id="Trazado_1794" data-name="Trazado 1794" d="M107.251,94.375H19.635a.75.75,0,1,1,0-1.5h87.616a.75.75,0,0,1,0,1.5Z" fill="#0063a6"/>
    <path id="Trazado_1795" data-name="Trazado 1795" d="M114.05,94.379h-2.213a.75.75,0,1,1,0-1.5h2.213a.75.75,0,1,1,0,1.5Z" fill="#0063a6"/>
    <path id="Trazado_1796" data-name="Trazado 1796" d="M15.008,94.379H12.8a.75.75,0,1,1,0-1.5h2.213a.75.75,0,1,1,0,1.5Z" fill="#0063a6"/>
  </g>
  <path id="Trazado_1797" data-name="Trazado 1797" d="M58.122,26.193A2.228,2.228,0,1,1,55.9,23.966,2.227,2.227,0,0,1,58.122,26.193Z" transform="translate(-5.2 -4.856)" fill="#dceefa"/>
  <path id="Trazado_1798" data-name="Trazado 1798" d="M26.809,76.581a2.837,2.837,0,1,1,2.837-2.837A2.841,2.841,0,0,1,26.809,76.581Zm0-4.674a1.837,1.837,0,1,0,1.837,1.837A1.84,1.84,0,0,0,26.809,71.907Z" transform="translate(-5.2 -4.856)" fill="#dceefa"/>
  <path id="Trazado_1799" data-name="Trazado 1799" d="M106.307,45.462a3.434,3.434,0,1,1,3.435-3.434A3.438,3.438,0,0,1,106.307,45.462Zm0-5.868a2.434,2.434,0,1,0,2.435,2.434A2.436,2.436,0,0,0,106.307,39.594Z" transform="translate(-5.2 -4.856)" fill="#0d6dc5"/>
  <path id="Trazado_1800" data-name="Trazado 1800" d="M7.928,56.915a2.728,2.728,0,1,1,2.727-2.728A2.731,2.731,0,0,1,7.928,56.915Zm0-4.455a1.728,1.728,0,1,0,1.727,1.727A1.73,1.73,0,0,0,7.928,52.46Z" transform="translate(-5.2 -4.856)" fill="#0d6dc5"/>
  <g id="Grupo_1337" data-name="Grupo 1337" transform="translate(-5.2 -4.856)">
    <path id="Trazado_1801" data-name="Trazado 1801" d="M39.092,51.473l5.77,43.81a3,3,0,0,0,3.369,2.582l31.1-4.121a3.791,3.791,0,0,0,2.876-3.907l-29.667.2L50.3,87.309l.334-40.33-8.964,1.128A3,3,0,0,0,39.092,51.473Z" fill="#fff"/>
    <path id="Trazado_1802" data-name="Trazado 1802" d="M42.7,54.111l4.97,37.729a2.585,2.585,0,0,0,2.9,2.224l26.787-3.549a2.584,2.584,0,0,0,2.222-2.9l-4.11-31.2-10.207-7.9-20.341,2.7A2.583,2.583,0,0,0,42.7,54.111Z" fill="#96d2fa"/>
    <path id="Trazado_1803" data-name="Trazado 1803" d="M50.4,42.678V86.867a3,3,0,0,0,3,3l31.376-.024a3,3,0,0,0,3-3V50.3L77.227,39.653,53.4,39.678A3,3,0,0,0,50.4,42.678Z" fill="#fff"/>
    <path id="Trazado_1804" data-name="Trazado 1804" d="M79.187,41.536l-.067,4.788a2,2,0,0,0,1.971,2.027l4.728.067Z" fill="#96d2fa"/>
    <g id="Grupo_1336" data-name="Grupo 1336">
      <path id="Trazado_1805" data-name="Trazado 1805" d="M56.933,67.818a.75.75,0,0,0,.75.75H80.438a.75.75,0,0,0,0-1.5H57.683A.75.75,0,0,0,56.933,67.818Z" fill="#0063a3"/>
      <path id="Trazado_1806" data-name="Trazado 1806" d="M80.438,73.13H57.683a.75.75,0,0,0,0,1.5H80.438a.75.75,0,0,0,0-1.5Z" fill="#0063a3"/>
      <path id="Trazado_1807" data-name="Trazado 1807" d="M80.438,79.191H57.683a.75.75,0,0,0,0,1.5H80.438a.75.75,0,0,0,0-1.5Z" fill="#0063a3"/>
      <path id="Trazado_1808" data-name="Trazado 1808" d="M88.519,50.253a.719.719,0,0,0-.037-.19.559.559,0,0,0-.026-.072.733.733,0,0,0-.145-.219L77.76,39.125a.752.752,0,0,0-.221-.148.583.583,0,0,0-.07-.025.7.7,0,0,0-.2-.04c-.015,0-.029-.009-.045-.009h0L53.4,38.929a3.754,3.754,0,0,0-3.746,3.75v3.612l-8.08,1.073a3.755,3.755,0,0,0-3.225,4.207l5.771,43.81a3.75,3.75,0,0,0,3.711,3.26,3.827,3.827,0,0,0,.5-.032l31.1-4.121a3.745,3.745,0,0,0,3.235-3.894h2.113a3.755,3.755,0,0,0,3.747-3.75V50.3C88.529,50.284,88.52,50.269,88.519,50.253ZM77.977,41.476l5.161,5.208,2.841,2.866H80.227a2.252,2.252,0,0,1-2.25-2.25ZM79.237,93l-31.1,4.121a2.249,2.249,0,0,1-2.527-1.937L39.835,51.375a2.252,2.252,0,0,1,1.935-2.524L49.653,47.8V86.867a3.751,3.751,0,0,0,3.749,3.75h0l27.77-.022A2.246,2.246,0,0,1,79.237,93Zm7.792-6.157a2.254,2.254,0,0,1-2.248,2.25L53.4,89.117h0a2.25,2.25,0,0,1-2.249-2.25V42.679a2.252,2.252,0,0,1,2.247-2.25L76.477,40.4v6.9a3.754,3.754,0,0,0,3.75,3.75h6.8Z" fill="#0063a3"/>
      <g id="Grupo_1335" data-name="Grupo 1335">
        <path id="Trazado_1809" data-name="Trazado 1809" d="M69.265,52.894h-4a.25.25,0,0,1-.25-.25v-4a.25.25,0,0,0-.25-.25h-2.5a.25.25,0,0,0-.25.25v4a.25.25,0,0,1-.25.25h-4a.25.25,0,0,0-.25.25v2.5a.25.25,0,0,0,.25.25h4a.25.25,0,0,1,.25.25v4a.25.25,0,0,0,.25.25h2.5a.25.25,0,0,0,.25-.25v-4a.25.25,0,0,1,.25-.25h4a.25.25,0,0,0,.25-.25v-2.5A.25.25,0,0,0,69.265,52.894Z" fill="#96d2fa"/>
        <path id="Trazado_1810" data-name="Trazado 1810" d="M64.765,60.894h-2.5a.751.751,0,0,1-.75-.75v-3.75h-3.75a.751.751,0,0,1-.75-.75v-2.5a.75.75,0,0,1,.75-.75h3.75v-3.75a.75.75,0,0,1,.75-.75h2.5a.75.75,0,0,1,.75.75v3.75h3.75a.75.75,0,0,1,.75.75v2.5a.751.751,0,0,1-.75.75h-3.75v3.75A.751.751,0,0,1,64.765,60.894Zm-2.25-1h2v-3.75a.75.75,0,0,1,.75-.75h3.75v-2h-3.75a.751.751,0,0,1-.75-.75v-3.75h-2v3.75a.751.751,0,0,1-.75.75h-3.75v2h3.75a.75.75,0,0,1,.75.75Z" fill="#0063a6"/>
      </g>
    </g>
  </g>
</svg>
