<svg xmlns="http://www.w3.org/2000/svg" width="124.191" height="100" viewBox="0 0 124.191 100">
  <g id="Grupo_1286" data-name="Grupo 1286" transform="translate(-20.195 -119.815)">
    <path id="Trazado_1451" data-name="Trazado 1451" d="M76.377,192.677A1.616,1.616,0,0,1,75,194.5l-2.622.358c-12.421,1.69-27.116,3.593-32.092,3.851-6.622.329-10.711-2.172-12.16-7.432-4.075-14.852-7.924-38.489-7.921-48.643a7.374,7.374,0,0,1,6.287-7.548c16.624-3.5,67.627-10.206,79.834-11.182a7.875,7.875,0,0,1,8.8,6.777c2.568,11.042,4.928,31.819,5.628,44.652a1.625,1.625,0,0,1-1.525,1.7" transform="translate(0 2.548)" fill="#ebf7ff"/>
    <path id="Trazado_1452" data-name="Trazado 1452" d="M115.607,143.269c-.07,0-1.46-1.453-.879-.18.374.822-.86-.768-.744-1.664.141-1.087-79.954-2.439-79.782,1.012a1.634,1.634,0,1,1-3.264.163,71.863,71.863,0,0,1,.283-10.873c.6-4,2.084-6.731,7.416-7.311a129.789,129.789,0,0,1,14.953-.27,12.382,12.382,0,0,1,7.776,2.385,12.884,12.884,0,0,1,2.664,2.887,9.681,9.681,0,0,0,1.724,1.957c1.365.85,3.008.84,5.267.845h.4c15.55,0,30.236,0,37.375.4,5.657.309,7.555,3.272,8.15,5.706a11.655,11.655,0,0,1,.28,4.454C117.121,143.6,116.418,143.269,115.607,143.269Z" transform="translate(6.76 2.683)" fill="#fff"/>
    <path id="Trazado_1453" data-name="Trazado 1453" d="M115.668,144.2a1.879,1.879,0,0,1-.212-.013,1.635,1.635,0,0,1-1.411-1.831,8.483,8.483,0,0,0-.2-3.233c-.32-1.3-1.195-3.029-5.162-3.246-7.05-.389-22.374-.389-37.195-.389h-.4c-2.6,0-4.84.007-7-1.342a10.931,10.931,0,0,1-2.6-2.758,10.918,10.918,0,0,0-1.945-2.189,9.456,9.456,0,0,0-5.884-1.788,129.458,129.458,0,0,0-14.656.26c-3.325.361-4.01,1.38-4.472,4.464a68.763,68.763,0,0,0-.263,10.3A1.634,1.634,0,1,1,31,142.6a72.078,72.078,0,0,1,.284-10.873c.6-4,2.084-6.731,7.416-7.311a129.767,129.767,0,0,1,14.951-.27,12.383,12.383,0,0,1,7.777,2.385,12.917,12.917,0,0,1,2.663,2.887,9.73,9.73,0,0,0,1.726,1.957c1.365.85,3.008.84,5.267.845h.4c15.55,0,30.235,0,37.375.4,5.657.309,7.555,3.272,8.15,5.706a11.622,11.622,0,0,1,.278,4.454A1.633,1.633,0,0,1,115.668,144.2Z" transform="translate(6.799 2.683)" fill="#0063a3"/>
    <path id="Trazado_1454" data-name="Trazado 1454" d="M76.549,197.834h0a1.635,1.635,0,0,1,0,3.269c-.878,0-1.774,0-2.679,0-12.684,0-27.677-.095-32.7-.515-6.684-.575-10.443-3.64-11.177-9.11-2.061-15.445-2.7-39.671-1.308-49.85a7.461,7.461,0,0,1,7.333-6.712c17.143-1.246,69.193-1.01,81.565-.324a7.971,7.971,0,0,1,7.9,8c1.067,11.419.6,32.572-.448,45.534a1.634,1.634,0,1,1-3.258-.265Z" transform="translate(4.919 9.022)" fill="#fff"/>
    <path id="Trazado_1455" data-name="Trazado 1455" d="M61.6,131.9s19.831-19.231,41.337-8.171c24.718,12.71,11.8,38.024,3.3,46.652" transform="translate(26.273 0.308)" fill="none" stroke="#dfe8f5" stroke-linecap="round" stroke-linejoin="round" stroke-width="1" stroke-dasharray="2"/>
    <path id="Trazado_1456" data-name="Trazado 1456" d="M31.408,143.806s-23.945,13.08.718,29.973" transform="translate(0.495 15.224)" fill="none" stroke="#dfe8f5" stroke-linecap="round" stroke-linejoin="round" stroke-width="1.125" stroke-dasharray="2.25"/>
    <path id="Trazado_1457" data-name="Trazado 1457" d="M92.4,131.662h-.713a1.358,1.358,0,0,1-1.358-1.357v-.747a.849.849,0,0,0-.822-.816H89.5a.844.844,0,0,0-.835.848v.714a1.358,1.358,0,0,1-1.358,1.357H86.58a.856.856,0,0,0-.842.856v.007a.843.843,0,0,0,.848.835h.719a1.358,1.358,0,0,1,1.358,1.358v.7a.841.841,0,0,0,.848.835l-.033-.026a.857.857,0,0,0,.848-.857v-.651a1.358,1.358,0,0,1,1.358-1.358h.726a.849.849,0,0,0-.013-1.7Z" transform="translate(41.592 5.665)" fill="#dfe8f5"/>
    <path id="Trazado_1458" data-name="Trazado 1458" d="M30.432,125.56h-.713a1.358,1.358,0,0,1-1.358-1.358v-.747a.846.846,0,0,0-.821-.814h-.007a.84.84,0,0,0-.835.848v.713a1.358,1.358,0,0,1-1.358,1.358h-.726a.855.855,0,0,0-.843.855l0,.007a.841.841,0,0,0,.848.835h.719a1.358,1.358,0,0,1,1.358,1.358v.7a.839.839,0,0,0,.848.834l-.034-.026a.855.855,0,0,0,.848-.857v-.651a1.358,1.358,0,0,1,1.358-1.358h.727a.848.848,0,0,0-.015-1.7Z" transform="translate(2.269 1.793)" fill="#dfe8f5"/>
    <path id="Trazado_1459" data-name="Trazado 1459" d="M31.929,178.979h-.713a1.358,1.358,0,0,1-1.358-1.357v-.747a.849.849,0,0,0-.821-.816h-.008a.841.841,0,0,0-.834.848v.714a1.358,1.358,0,0,1-1.358,1.357H26.11a.858.858,0,0,0-.842.857v.007a.844.844,0,0,0,.85.835h.719a1.358,1.358,0,0,1,1.358,1.357v.7a.841.841,0,0,0,.848.835l-.034-.026a.857.857,0,0,0,.848-.857v-.652a1.358,1.358,0,0,1,1.358-1.357h.726a.849.849,0,0,0-.013-1.7Z" transform="translate(3.219 35.692)" fill="#dfe8f5"/>
    <path id="Trazado_1460" data-name="Trazado 1460" d="M98.24,161.506h-.714a1.358,1.358,0,0,1-1.357-1.358V159.4a.848.848,0,0,0-.822-.814H95.34a.842.842,0,0,0-.835.848v.713a1.358,1.358,0,0,1-1.358,1.358h-.726a.854.854,0,0,0-.842.855v.007a.842.842,0,0,0,.848.835h.719a1.358,1.358,0,0,1,1.358,1.358v.7a.84.84,0,0,0,.848.834l-.033-.026a.856.856,0,0,0,.848-.857v-.651a1.358,1.358,0,0,1,1.357-1.358h.727a.848.848,0,0,0-.013-1.7Z" transform="translate(45.298 24.604)" fill="#dfe8f5"/>
    <path id="Trazado_1461" data-name="Trazado 1461" d="M73.873,201.1c-12.684,0-27.677-.095-32.7-.515-6.684-.575-10.443-3.64-11.177-9.11-2.061-15.445-2.7-39.671-1.308-49.85a7.461,7.461,0,0,1,7.333-6.712c17.143-1.246,69.193-1.01,81.565-.324a7.971,7.971,0,0,1,7.9,8c1.067,11.419.6,32.572-.448,45.534a1.634,1.634,0,1,1-3.258-.265c1.041-12.879,1.468-34.084.443-45.124a4.76,4.76,0,0,0-4.7-4.876c-12.433-.683-64.218-.922-81.361.322a4.244,4.244,0,0,0-4.229,3.822c-1.365,10.022-.729,33.823,1.3,49.042.325,2.422,1.532,5.71,8.214,6.287,4.165.346,16.3.528,35.1.5h0a1.635,1.635,0,0,1,0,3.269C75.675,201.1,74.779,201.1,73.873,201.1Z" transform="translate(4.919 9.022)" fill="#0063a3"/>
    <path id="Trazado_1462" data-name="Trazado 1462" d="M41.724,172.868h-.034l-.36-.015c-2.705-.11-4.659-.188-6.074-1.347-1.112-.915-1.264-3.013-1.264-5.144a.817.817,0,1,1,1.635,0c0,2.21.224,3.516.667,3.882.989.809,2.625.876,5.1.976l.361.013a.818.818,0,0,1-.033,1.635Z" transform="translate(8.755 29.019)" fill="#0063a3"/>
    <path id="Trazado_1463" data-name="Trazado 1463" d="M83.663,191.748a98.146,98.146,0,0,1-15.442-1.067c-3.846-.649-8.26-1.772-8.26-4.747,0-3.1,1.1-9.667,3.753-11.524a20.2,20.2,0,0,1,5.956-2.4c4.551-1.3,7.127-2.234,7.127-6.329a1.635,1.635,0,0,1,3.269,0c0,6.761-5.267,8.264-9.5,9.474A17.632,17.632,0,0,0,65.58,177.1c-.959.672-2.3,5.116-2.349,8.657,1.079,1.13,8.116,2.726,20.432,2.726s19.353-1.6,20.431-2.726c-.046-3.751-1.527-8.152-2.677-8.887a20.6,20.6,0,0,0-4.714-1.8c-4.265-1.27-9.574-2.852-9.574-9.386a1.635,1.635,0,0,1,3.269,0c0,3.9,2.751,4.917,7.238,6.252a23.222,23.222,0,0,1,5.518,2.163c2.756,1.762,4.211,8,4.211,11.839C107.365,190.993,92.515,191.748,83.663,191.748Z" transform="translate(25.235 28.067)" fill="#0063a3"/>
    <path id="Trazado_1464" data-name="Trazado 1464" d="M78.587,178.467c-5.28,0-10.625-5.7-10.625-16.607,0-8.145,3.872-12.815,10.625-12.815s10.625,4.67,10.625,12.815C89.212,172.763,83.866,178.467,78.587,178.467Zm0-26.153c-4.881,0-7.356,3.212-7.356,9.546,0,9.2,4.3,13.338,7.356,13.338s7.356-4.137,7.356-13.338C85.942,155.526,83.468,152.314,78.587,152.314Z" transform="translate(30.312 18.549)" fill="#0063a3"/>
    <path id="Trazado_1465" data-name="Trazado 1465" d="M49.735,150.858c-5.077,0-9.789-.078-11.238-.273a3,3,0,0,1-2.442-2.37,22.478,22.478,0,0,1-.011-4.386,2.847,2.847,0,0,1,2.452-2.368,199.9,199.9,0,0,1,25.843,0h.013a2.559,2.559,0,0,1,2.489,2.151,14.647,14.647,0,0,1,0,4.763,2.575,2.575,0,0,1-2.386,2.22C62.223,150.747,55.725,150.858,49.735,150.858Zm1.7-8.183q-6.419,0-12.792.414a1.17,1.17,0,0,0-.979.961,20.925,20.925,0,0,0,.008,3.931,1.339,1.339,0,0,0,1.074.991c2.96.391,21.63.27,25.6-.011h0a.947.947,0,0,0,.876-.824,12.981,12.981,0,0,0,0-4.26.944.944,0,0,0-.935-.786h0Q57.872,142.676,51.435,142.675Z" transform="translate(9.992 13.47)" fill="#0063a3"/>
    <path id="Trazado_1466" data-name="Trazado 1466" d="M37.578,151.73a.817.817,0,0,1-.049-1.633c2.573-.16,5.9-.1,8.84-.051,1.391.025,2.722.049,3.9.049a.817.817,0,0,1,0,1.635c-1.182,0-2.522-.025-3.923-.049-2.908-.049-6.2-.108-8.712.047C37.612,151.73,37.594,151.73,37.578,151.73Z" transform="translate(10.513 19.15)" fill="#0063a3"/>
    <path id="Trazado_1467" data-name="Trazado 1467" d="M37.578,154.73a.817.817,0,0,1-.049-1.633c2.682-.165,8.106-.1,12.464-.044,1.726.023,3.246.042,4.292.042a.817.817,0,0,1,0,1.635c-1.051,0-2.579-.02-4.312-.043-4.33-.054-9.722-.121-12.344.041C37.612,154.73,37.594,154.73,37.578,154.73Z" transform="translate(10.513 21.054)" fill="#0063a3"/>
    <path id="Trazado_1468" data-name="Trazado 1468" d="M49.611,151.771a5.774,5.774,0,0,1-.982-.07.818.818,0,0,1-.665-.946.809.809,0,0,1,.945-.664,10.131,10.131,0,0,0,1.9,0,6.18,6.18,0,0,1,1.6.015.817.817,0,1,1-.376,1.59,8.829,8.829,0,0,0-1.123.026C50.489,151.743,50.04,151.771,49.611,151.771Z" transform="translate(17.614 19.183)" fill="#0063a3"/>
    <path id="Trazado_1469" data-name="Trazado 1469" d="M39.123,157.731a10.14,10.14,0,0,1-1.484-.07.817.817,0,1,1,.28-1.61c.479.08,2.5.033,3.967,0a23.048,23.048,0,0,1,3.222.01.818.818,0,0,1-.337,1.6c-.262-.043-1.7,0-2.844.025C40.8,157.71,39.854,157.731,39.123,157.731Z" transform="translate(10.639 22.965)" fill="#0063a3"/>
    <path id="Trazado_1470" data-name="Trazado 1470" d="M57.466,129.229a.814.814,0,0,1-.719-.43,11.788,11.788,0,0,0-9.049-6.113.818.818,0,0,1-.721-.9.809.809,0,0,1,.9-.721,13.421,13.421,0,0,1,10.3,6.962.818.818,0,0,1-.719,1.206Z" transform="translate(16.992 0.787)" fill="#0063a3"/>
    <path id="Trazado_1471" data-name="Trazado 1471" d="M56.217,125.242a.821.821,0,0,1-.74-.469,6.309,6.309,0,0,0-3.892-3.357.817.817,0,1,1,.471-1.564,7.958,7.958,0,0,1,4.9,4.225.819.819,0,0,1-.74,1.165Z" transform="translate(19.549)" fill="#0063a3"/>
    <path id="Trazado_1472" data-name="Trazado 1472" d="M48.747,147.136c-4.023,0-7.756-.034-8.9-.123a2.195,2.195,0,0,1-1.935-1.067,5.766,5.766,0,0,1-.008-1.975,2.088,2.088,0,0,1,1.942-1.067c6.815-.25,13.693-.252,20.473,0h.01c.959,0,1.806.405,1.973.968a3.8,3.8,0,0,1,0,2.145c-.121.538-.917.964-1.891,1C58.641,147.087,53.494,147.136,48.747,147.136Z" transform="translate(11.184 14.532)" fill="#96d2fa"/>
    <path id="Trazado_1473" data-name="Trazado 1473" d="M66.922,180.451c8.439.608,14.4,1.311,28.778-.129,4.07-.407,2.319-4.456-11.226-8.912a9.5,9.5,0,0,0-6.548.049C65.059,175.313,60.784,180.01,66.922,180.451Z" transform="translate(27.899 32.391)" fill="#96d2fa"/>
  </g>
</svg>
