<svg xmlns="http://www.w3.org/2000/svg" width="115.867" height="100.54" viewBox="0 0 115.867 100.54">
  <g id="Grupo_1285" data-name="Grupo 1285" transform="translate(-62.412 -61.949)">
    <path id="Trazado_1420" data-name="Trazado 1420" d="M142.983,77.87l1.78.414c8.2,1.973,12.32,7.546,11.834,15.969a256.1,256.1,0,0,1-6.2,41.678,15.265,15.265,0,0,1-15.97,11.834,185.921,185.921,0,0,1-24.1-3.006c-8.573-1.827-9.828-8.936-10.281-17.46-.395-6.389-3.3-9.9-10.663-9.651-4.293.128-7.333-.311-7.054-5.083.379-6.342,3.086-20.753,4.837-28.639,1.738-8.25,6.846-12.411,15.917-11.84l.824.055" transform="translate(6.562 3.146)" fill="#ebf7ff"/>
    <g id="Calendar_4" data-name="Calendar 4" transform="translate(69.436 69.595)">
      <g id="Container" opacity="0">
        <rect id="Rectángulo_506" data-name="Rectángulo 506" width="85.095" height="85.097" fill="#e04c59"/>
      </g>
      <g id="Grupo_1279" data-name="Grupo 1279" transform="translate(5.341 5.956)">
        <path id="Trazado_1421" data-name="Trazado 1421" d="M127.828,73.313l1.822.146c8.4.745,13.3,5.651,14.054,14.054a255.949,255.949,0,0,1,0,42.136A15.262,15.262,0,0,1,129.649,143.7a185.426,185.426,0,0,1-24.279.572c-8.749-.545-11.036-7.393-12.738-15.756-1.33-6.263-4.72-9.307-11.966-7.978-4.228.758-7.3.771-7.725-3.989-.558-6.329,0-20.982.572-29.039.505-8.417,4.946-13.283,14-14.054l.824-.066" transform="translate(-71.382 -71.983)" fill="#fff"/>
        <path id="Trazado_1422" data-name="Trazado 1422" d="M113.447,146.1q-3.909,0-7.8-.162c-9.872-.616-12.32-8.647-13.985-16.821-1.282-6.045-4.3-8.054-10.423-6.935-2.607.469-5.308.8-7.209-.65A6.008,6.008,0,0,1,71.946,117c-.569-6.455,0-21.27.57-29.252.56-9.325,5.679-14.472,15.213-15.284l.831-.066a1.329,1.329,0,1,1,.213,2.65l-.824.066c-8.121.691-12.3,4.882-12.779,12.808-.561,7.91-1.132,22.533-.576,28.843a3.612,3.612,0,0,0,1.045,2.65c.995.758,3.049.519,5.122.148,7.51-1.376,11.923,1.57,13.5,9.01,1.872,9.193,4.26,14.254,11.52,14.707a184.769,184.769,0,0,0,24.078-.57,13.863,13.863,0,0,0,12.847-12.831,255.144,255.144,0,0,0,0-41.925c-.7-7.713-5.138-12.157-12.845-12.84l-1.811-.145a1.329,1.329,0,0,1-1.219-1.432,1.313,1.313,0,0,1,1.432-1.218l1.822.146c9.036.8,14.457,6.219,15.273,15.259a258.306,258.306,0,0,1,0,42.366,16.506,16.506,0,0,1-15.28,15.27C124.579,145.85,119.008,146.1,113.447,146.1Z" transform="translate(-71.711 -72.312)" fill="#0063a3"/>
      </g>
      <path id="Trazado_1423" data-name="Trazado 1423" d="M88.4,74.907a1.33,1.33,0,0,1-.069-2.658c9.835-.525,19.811-.556,29.65-.094a1.329,1.329,0,0,1,1.266,1.391,1.344,1.344,0,0,1-1.389,1.266c-9.749-.457-19.638-.425-29.386.093Z" transform="translate(-61.307 -66.516)" fill="#0063a3"/>
      <path id="Trazado_1424" data-name="Trazado 1424" d="M105.324,135.2C98.5,135.2,87.9,130.01,81.2,123.382c-4.733-4.656-9.356-9.823-9.356-17.22a1.33,1.33,0,1,1,2.659,0c0,5.772,3.141,9.991,8.565,15.326,6.161,6.095,16.144,11.053,22.255,11.053a1.33,1.33,0,1,1,0,2.659Z" transform="translate(-66.327 -55.636)" fill="#0063a3"/>
      <path id="Trazado_1425" data-name="Trazado 1425" d="M117,96.439a12.5,12.5,0,0,1-2.337-.222,3.305,3.305,0,0,1-2.754-2.772,13.076,13.076,0,0,1,0-4.662,3.512,3.512,0,0,1,2.743-2.754,14.755,14.755,0,0,1,4.664-.005,3.406,3.406,0,0,1,2.759,2.766,11.706,11.706,0,0,1,0,4.686,3.58,3.58,0,0,1-2.715,2.738l-.02,0A12.506,12.506,0,0,1,117,96.439Zm2.214-.876h0Zm-2.21-8.391a13.443,13.443,0,0,0-2.113.166,2.167,2.167,0,0,0-1.673,1.7,11.675,11.675,0,0,0,0,4.19,1.99,1.99,0,0,0,1.667,1.682,11.135,11.135,0,0,0,4.191.007,2.236,2.236,0,0,0,1.691-1.71,10.349,10.349,0,0,0,0-4.167,2.074,2.074,0,0,0-1.671-1.7A13.463,13.463,0,0,0,117.007,87.172Z" transform="translate(-53.189 -61.897)" fill="#0063a3"/>
      <path id="Trazado_1426" data-name="Trazado 1426" d="M105.994,96.432a11.884,11.884,0,0,1-2.339-.233,3.311,3.311,0,0,1-2.734-2.771,12.972,12.972,0,0,1,0-4.648,3.494,3.494,0,0,1,2.727-2.739,14.689,14.689,0,0,1,4.654-.005,3.314,3.314,0,0,1,2.772,2.758,12.159,12.159,0,0,1-.005,4.66,3.593,3.593,0,0,1-2.73,2.743l-.012,0A11.881,11.881,0,0,1,105.994,96.432Zm2.207-.884h0Zm-2.208-8.366a13.413,13.413,0,0,0-2.1.166,2.155,2.155,0,0,0-1.662,1.685,11.655,11.655,0,0,0,0,4.175,2,2,0,0,0,1.659,1.683,10.514,10.514,0,0,0,4.171.005,2.253,2.253,0,0,0,1.709-1.713,10.75,10.75,0,0,0,0-4.158,2,2,0,0,0-1.667-1.677A13.376,13.376,0,0,0,105.993,87.181Z" transform="translate(-56.811 -61.894)" fill="#0063a3"/>
      <path id="Trazado_1427" data-name="Trazado 1427" d="M95,96.439a12.492,12.492,0,0,1-2.337-.222,3.307,3.307,0,0,1-2.754-2.772,13.075,13.075,0,0,1,0-4.662,3.512,3.512,0,0,1,2.743-2.754,14.833,14.833,0,0,1,4.664-.005,3.405,3.405,0,0,1,2.758,2.766,11.658,11.658,0,0,1,0,4.686,3.576,3.576,0,0,1-2.715,2.738l-.019,0A12.5,12.5,0,0,1,95,96.439Zm2.214-.876h0Zm-2.21-8.391a13.429,13.429,0,0,0-2.113.166,2.172,2.172,0,0,0-1.674,1.7,11.705,11.705,0,0,0,0,4.19,1.989,1.989,0,0,0,1.667,1.682,11.136,11.136,0,0,0,4.191.007,2.244,2.244,0,0,0,1.693-1.71,10.4,10.4,0,0,0,0-4.167,2.077,2.077,0,0,0-1.673-1.7A13.463,13.463,0,0,0,95.007,87.172Z" transform="translate(-60.44 -61.897)" fill="#0063a3"/>
      <path id="Trazado_1428" data-name="Trazado 1428" d="M117,107.483a12.129,12.129,0,0,1-2.364-.234,3.3,3.3,0,0,1-2.748-2.787,13.257,13.257,0,0,1,0-4.683,3.53,3.53,0,0,1,2.74-2.768,14.721,14.721,0,0,1,4.708-.005,3.431,3.431,0,0,1,2.783,2.775,12.335,12.335,0,0,1,0,4.709,3.6,3.6,0,0,1-2.746,2.756l-.012,0A12.136,12.136,0,0,1,117,107.483Zm2.232-.886h0Zm-2.23-8.45a13.314,13.314,0,0,0-2.13.172,2.183,2.183,0,0,0-1.677,1.709,11.962,11.962,0,0,0,0,4.219,1.994,1.994,0,0,0,1.669,1.694,10.783,10.783,0,0,0,4.229.007,2.268,2.268,0,0,0,1.722-1.724,11.015,11.015,0,0,0,0-4.2,2.1,2.1,0,0,0-1.7-1.707A13.257,13.257,0,0,0,117.006,98.147Z" transform="translate(-53.195 -58.279)" fill="#0063a3"/>
      <path id="Trazado_1429" data-name="Trazado 1429" d="M106,107.454a12.465,12.465,0,0,1-2.345-.222,3.3,3.3,0,0,1-2.754-2.788,13.023,13.023,0,0,1,0-4.658,3.52,3.52,0,0,1,2.739-2.766,14.9,14.9,0,0,1,4.68-.005A3.4,3.4,0,0,1,111.1,99.8a11.692,11.692,0,0,1,0,4.683,3.588,3.588,0,0,1-2.73,2.75l-.019,0A12.462,12.462,0,0,1,106,107.454Zm2.219-.875h0ZM106,98.161a13.664,13.664,0,0,0-2.119.166,2.185,2.185,0,0,0-1.673,1.709,11.69,11.69,0,0,0,0,4.192,1.99,1.99,0,0,0,1.669,1.694,11.206,11.206,0,0,0,4.2.005,2.25,2.25,0,0,0,1.7-1.721,10.355,10.355,0,0,0,0-4.168,2.068,2.068,0,0,0-1.682-1.713A13.6,13.6,0,0,0,106,98.161Z" transform="translate(-56.818 -58.274)" fill="#0063a3"/>
      <path id="Trazado_1430" data-name="Trazado 1430" d="M94.613,107.459a17.482,17.482,0,0,1-2.723-.213,2.4,2.4,0,0,1-2.066-2.29,16.233,16.233,0,0,1,.092-5.2,3.528,3.528,0,0,1,2.74-2.767,14.975,14.975,0,0,1,4.68-.005,3.4,3.4,0,0,1,2.772,2.78,11.682,11.682,0,0,1-.005,4.686,3.574,3.574,0,0,1-2.727,2.788l-.041.008A17.478,17.478,0,0,1,94.613,107.459Zm2.618-.87h0Zm-2.216-8.458A13.512,13.512,0,0,0,92.9,98.3a2.185,2.185,0,0,0-1.674,1.709,14.841,14.841,0,0,0-.085,4.735c.158.858.316,1.052,1,1.2a16.157,16.157,0,0,0,4.973,0,2.245,2.245,0,0,0,1.694-1.751,10.353,10.353,0,0,0,0-4.178A2.074,2.074,0,0,0,97.118,98.3,13.431,13.431,0,0,0,95.015,98.131Z" transform="translate(-60.455 -58.284)" fill="#0063a3"/>
      <path id="Trazado_1431" data-name="Trazado 1431" d="M84,107.454a12.455,12.455,0,0,1-2.345-.222,3.3,3.3,0,0,1-2.754-2.787,13.054,13.054,0,0,1,0-4.658,3.525,3.525,0,0,1,2.74-2.767,18.565,18.565,0,0,1,5.2-.008c1.669.287,1.966,1.538,2.23,2.643a11.764,11.764,0,0,1,.017,4.784,3.574,3.574,0,0,1-2.727,2.788l-.02,0A12.461,12.461,0,0,1,84,107.454Zm2.219-.875h0Zm-1.948-8.418a17.307,17.307,0,0,0-2.4.168,2.186,2.186,0,0,0-1.662,1.709,11.743,11.743,0,0,0,0,4.191,1.994,1.994,0,0,0,1.67,1.694,11.226,11.226,0,0,0,4.2.007,2.246,2.246,0,0,0,1.7-1.754,10.353,10.353,0,0,0,0-4.178c-.281-1.175-.4-1.542-1.151-1.671A17.124,17.124,0,0,0,84.272,98.161Z" transform="translate(-64.069 -58.274)" fill="#0063a3"/>
      <path id="Trazado_1432" data-name="Trazado 1432" d="M106.006,118.465a12.13,12.13,0,0,1-2.364-.234,3.3,3.3,0,0,1-2.762-2.787,14.9,14.9,0,0,1,0-4.914,2.755,2.755,0,0,1,2.493-2.513,21.61,21.61,0,0,1,4.939-.005,3.311,3.311,0,0,1,2.816,2.795,12.025,12.025,0,0,1-.005,4.695,3.608,3.608,0,0,1-2.746,2.728h-.011A12.137,12.137,0,0,1,106.006,118.465Zm2.232-.886h0Zm-2.365-8.378a19.949,19.949,0,0,0-2.3.132c-.9.164-1.153.421-1.383,1.452a13.63,13.63,0,0,0,.007,4.452,1.99,1.99,0,0,0,1.678,1.686,10.828,10.828,0,0,0,4.233.007,2.273,2.273,0,0,0,1.722-1.7,10.765,10.765,0,0,0,0-4.191,2,2,0,0,0-1.682-1.7A20.049,20.049,0,0,0,105.873,109.2Z" transform="translate(-56.823 -54.635)" fill="#0063a3"/>
      <path id="Trazado_1433" data-name="Trazado 1433" d="M94.989,118.4a12.541,12.541,0,0,1-2.331-.221,3.313,3.313,0,0,1-2.726-2.756,12.89,12.89,0,0,1,0-4.639,3.5,3.5,0,0,1,2.71-2.738,14.706,14.706,0,0,1,4.656-.007,3.324,3.324,0,0,1,2.746,2.76,11.519,11.519,0,0,1-.005,4.652,3.564,3.564,0,0,1-2.7,2.723l-.02,0A12.545,12.545,0,0,1,94.989,118.4Zm2.207-.874h0Zm-2.206-8.341a13.314,13.314,0,0,0-2.1.168,2.158,2.158,0,0,0-1.647,1.683,11.589,11.589,0,0,0,0,4.163,2,2,0,0,0,1.649,1.671,11.112,11.112,0,0,0,4.171.005,2.234,2.234,0,0,0,1.679-1.7,10.265,10.265,0,0,0,0-4.14,2.008,2.008,0,0,0-1.651-1.686A13.379,13.379,0,0,0,94.991,109.19Z" transform="translate(-60.433 -54.638)" fill="#0063a3"/>
      <path id="Trazado_1434" data-name="Trazado 1434" d="M112.816,83.158a3.424,3.424,0,0,1-3.405-3.069l0-.025a32.113,32.113,0,0,1,.569-9.43,3.4,3.4,0,0,1,6.673.015,29.359,29.359,0,0,1-.512,9.952A3.47,3.47,0,0,1,112.816,83.158Zm-.761-3.341a.772.772,0,0,0,1.509.124,26.691,26.691,0,0,0,.463-8.88.753.753,0,0,0-1.445.106A29.548,29.548,0,0,0,112.056,79.816Z" transform="translate(-53.985 -67.809)" fill="#0063a3"/>
      <path id="Trazado_1435" data-name="Trazado 1435" d="M87.486,83.183a3.417,3.417,0,0,1-3.293-2.53,29.032,29.032,0,0,1-.542-9.9,3.425,3.425,0,0,1,2.691-2.779,3.4,3.4,0,0,1,4,2.675,32.636,32.636,0,0,1,.553,9.414v0a3.423,3.423,0,0,1-3.41,3.117Zm-.479-12.615a.792.792,0,0,0-.148.013.746.746,0,0,0-.585.586,26.252,26.252,0,0,0,.5,8.845.727.727,0,0,0,.34.41.747.747,0,0,0,.574.074.758.758,0,0,0,.56-.665,30.014,30.014,0,0,0-.511-8.654.742.742,0,0,0-.73-.609Zm2.565,9.38h0Z" transform="translate(-62.501 -67.809)" fill="#0063a3"/>
      <path id="Trazado_1436" data-name="Trazado 1436" d="M115.553,124.086a1.33,1.33,0,0,1-.152-2.651c3.252-.372,5.837-3.509,6.709-6.415a1.33,1.33,0,1,1,2.548.766c-1.089,3.625-4.356,7.765-8.952,8.291A1.193,1.193,0,0,1,115.553,124.086Z" transform="translate(-52.358 -52.591)" fill="#0063a3"/>
      <path id="Trazado_1437" data-name="Trazado 1437" d="M83.389,128.4a.663.663,0,0,1-.207-.033,17.081,17.081,0,0,1-10.4-9.573A.665.665,0,1,1,74,118.278a15.755,15.755,0,0,0,9.593,8.829.665.665,0,0,1-.206,1.3Z" transform="translate(-66.036 -51.338)" fill="#0063a3"/>
      <path id="Trazado_1438" data-name="Trazado 1438" d="M78.751,129.306a.641.641,0,0,1-.289-.066,15.616,15.616,0,0,1-6.748-6.248.665.665,0,0,1,1.15-.667,14.292,14.292,0,0,0,6.176,5.719.665.665,0,0,1-.29,1.263Z" transform="translate(-66.399 -49.98)" fill="#0063a3"/>
    </g>
    <path id="Trazado_1439" data-name="Trazado 1439" d="M105.411,93.473a6.508,6.508,0,0,1-1.29-.129,1.826,1.826,0,0,1-1.509-1.529,7.167,7.167,0,0,1,0-2.565,1.928,1.928,0,0,1,1.505-1.512,8.074,8.074,0,0,1,2.567,0,1.831,1.831,0,0,1,1.53,1.522,6.667,6.667,0,0,1,0,2.571,1.981,1.981,0,0,1-1.505,1.513H106.7A6.512,6.512,0,0,1,105.411,93.473Zm1.218-.488h0Z" transform="translate(13.214 8.289)" fill="#96d2fa"/>
    <path id="Trazado_1440" data-name="Trazado 1440" d="M83.418,104.434a6.62,6.62,0,0,1-1.291-.128,1.828,1.828,0,0,1-1.508-1.529,7.136,7.136,0,0,1,0-2.565A1.928,1.928,0,0,1,82.126,98.7a8.122,8.122,0,0,1,2.569,0,1.83,1.83,0,0,1,1.529,1.522,6.693,6.693,0,0,1,0,2.571,1.984,1.984,0,0,1-1.506,1.514h-.007A6.607,6.607,0,0,1,83.418,104.434Zm1.218-.488h0Z" transform="translate(5.964 11.902)" fill="#96d2fa"/>
    <path id="Trazado_1441" data-name="Trazado 1441" d="M116.373,93.473a6.512,6.512,0,0,1-1.291-.129,1.825,1.825,0,0,1-1.508-1.529,7.136,7.136,0,0,1,0-2.565,1.932,1.932,0,0,1,1.505-1.512,8.074,8.074,0,0,1,2.567,0,1.828,1.828,0,0,1,1.53,1.522,6.694,6.694,0,0,1,0,2.571,1.982,1.982,0,0,1-1.506,1.513h-.007A6.509,6.509,0,0,1,116.373,93.473Zm1.218-.488h0Z" transform="translate(16.827 8.289)" fill="#96d2fa"/>
    <path id="Trazado_1442" data-name="Trazado 1442" d="M76.857,112.2a44.831,44.831,0,0,0,5.963,6.4,63.176,63.176,0,0,0,6.245,4.946c.242.221,1.005.117.62-.666-.859-1.748-1.139-8.3-3.805-10.509-2.738-2.264-7.523-1.194-8.891-.782A.36.36,0,0,0,76.857,112.2Z" transform="translate(4.722 15.981)" fill="#96d2fa"/>
    <path id="Trazado_1443" data-name="Trazado 1443" d="M72.028,103.126s-14.067-20.541,2.248-34.2c15.463-12.946,30.955-3.736,35.951,4.755" transform="translate(1.312 0)" fill="none" stroke="#dfe8f5" stroke-linecap="round" stroke-linejoin="round" stroke-width="1" stroke-dasharray="2"/>
    <path id="Trazado_1444" data-name="Trazado 1444" d="M128.564,103.754s13.473,9.544,21-11.74" transform="translate(21.806 9.732)" fill="none" stroke="#dfe8f5" stroke-linecap="round" stroke-linejoin="round" stroke-width="1" stroke-dasharray="2"/>
    <g id="Grupo_1284" data-name="Grupo 1284" transform="translate(165.566 80.805)">
      <g id="Grupo_1281" data-name="Grupo 1281">
        <g id="Grupo_1280" data-name="Grupo 1280">
          <path id="Trazado_1445" data-name="Trazado 1445" d="M146.35,76.264a6.356,6.356,0,0,0-5.408,9.7l5.046,8.131a.527.527,0,0,0,.449.25h0a.531.531,0,0,0,.451-.257l4.917-8.21a6.357,6.357,0,0,0-5.459-9.612Zm4.55,9.068L146.43,92.8,141.842,85.4a5.3,5.3,0,1,1,9.057-.072Z" transform="translate(-139.993 -76.264)" fill="#dfe8f5"/>
        </g>
      </g>
      <g id="Grupo_1283" data-name="Grupo 1283" transform="translate(3.178 3.178)">
        <g id="Grupo_1282" data-name="Grupo 1282">
          <path id="Trazado_1446" data-name="Trazado 1446" d="M145.562,78.654a3.178,3.178,0,1,0,3.178,3.178A3.182,3.182,0,0,0,145.562,78.654Z" transform="translate(-142.383 -78.654)" fill="#dfe8f5"/>
        </g>
      </g>
    </g>
    <path id="Trazado_1447" data-name="Trazado 1447" d="M67.83,99.083h-.58a1.1,1.1,0,0,1-1.1-1.1v-.608a.691.691,0,0,0-.669-.663h-.005a.685.685,0,0,0-.679.69v.581a1.1,1.1,0,0,1-1.1,1.1H63.1a.7.7,0,0,0-.685.7v.005a.685.685,0,0,0,.69.679h.585a1.1,1.1,0,0,1,1.1,1.1v.569a.685.685,0,0,0,.69.679l-.027-.021a.7.7,0,0,0,.69-.7v-.531a1.1,1.1,0,0,1,1.1-1.1h.59a.691.691,0,0,0-.011-1.381Z" transform="translate(0 11.28)" fill="#dfe8f5"/>
    <path id="Trazado_1448" data-name="Trazado 1448" d="M101.933,135.479h-.58a1.1,1.1,0,0,1-1.1-1.1v-.608a.691.691,0,0,0-.667-.663h-.007a.684.684,0,0,0-.678.69v.581a1.1,1.1,0,0,1-1.1,1.1H97.2a.7.7,0,0,0-.685.7v.005a.687.687,0,0,0,.691.679h.585a1.1,1.1,0,0,1,1.1,1.1v.568a.683.683,0,0,0,.69.679l-.028-.021a.7.7,0,0,0,.69-.7v-.529a1.1,1.1,0,0,1,1.1-1.1h.59a.691.691,0,0,0-.011-1.381Z" transform="translate(11.241 23.277)" fill="#dfe8f5"/>
    <path id="Trazado_1449" data-name="Trazado 1449" d="M130.656,68.811h-.58a1.1,1.1,0,0,1-1.1-1.1V67.1a.69.69,0,0,0-.667-.662H128.3a.685.685,0,0,0-.679.69v.58a1.1,1.1,0,0,1-1.1,1.1h-.592a.7.7,0,0,0-.685.7v.005a.686.686,0,0,0,.69.679h.586a1.1,1.1,0,0,1,1.1,1.1v.569a.686.686,0,0,0,.691.679l-.028-.023a.7.7,0,0,0,.69-.7V71.3a1.1,1.1,0,0,1,1.1-1.1h.59a.691.691,0,0,0-.011-1.381Z" transform="translate(20.71 1.301)" fill="#dfe8f5"/>
    <path id="Trazado_1450" data-name="Trazado 1450" d="M145.207,107.824h-.58a1.1,1.1,0,0,1-1.1-1.1v-.608a.688.688,0,0,0-.667-.662h-.005a.684.684,0,0,0-.679.69v.58a1.1,1.1,0,0,1-1.1,1.1h-.59a.7.7,0,0,0-.686.7v.007a.685.685,0,0,0,.691.678h.585a1.1,1.1,0,0,1,1.1,1.1v.569a.685.685,0,0,0,.69.679l-.028-.023a.7.7,0,0,0,.69-.7v-.531a1.1,1.1,0,0,1,1.1-1.1h.592a.683.683,0,0,0,.678-.69A.69.69,0,0,0,145.207,107.824Z" transform="translate(25.506 14.161)" fill="#dfe8f5"/>
  </g>
</svg>
