<?xml version="1.0" encoding="utf-8"?>
<!-- Generator: Adobe Illustrator 25.2.3, SVG Export Plug-In . SVG Version: 6.00 Build 0)  -->
<svg version="1.1" id="Icon_Description_Healthy-Follow"
	 xmlns="http://www.w3.org/2000/svg" xmlns:xlink="http://www.w3.org/1999/xlink" x="0px" y="0px" viewBox="0 0 16 16"
	 style="enable-background:new 0 0 16 16;" xml:space="preserve">
<style type="text/css">
	.st0{fill:#0089D9;}
</style>
<path id="icon" class="st0" d="M8.1,16C6,16,4,15.2,2.5,13.7c-1.2-1.1-2-2.6-2.4-4.3C-0.1,8.1,0,6.6,0.6,5.3
	c0.6-1.5,1.7-2.8,3.1-3.8C5,0.5,6.7,0,8.3,0c2.2,0,4.3,0.9,5.9,2.4L16,0.7V6h-5.3l1.8-1.8c-0.6-0.7-1.4-1.3-2.3-1.7
	C9.4,2.1,8.5,2,7.7,2C6,2,4.5,2.6,3.3,3.7C1.7,5.2,1,7.5,1.6,9.7c0.3,1.1,0.8,2.2,1.6,3c0.8,0.9,1.8,1.5,3,1.9
	c0.6,0.2,1.2,0.3,1.9,0.3c1.5,0,2.9-0.5,4.1-1.4c1.3-1,2.1-2.5,2.4-4.1h1.3c-0.4,2-1.4,3.7-3,5C11.6,15.4,9.9,16,8.1,16z M8.3,9.2
	C8.2,9.2,8,9.1,7.9,9L4,8.7c-0.2,0-0.3-0.1-0.3-0.3S3.8,8,4,8l0.2,0l0.1,0c1-0.1,2.5-0.3,3.4-0.4L8,3.3C8,3.2,8.1,3,8.3,3h0
	c0.2,0,0.3,0.1,0.3,0.3l0,0.2l0,0.1C8.8,4.4,9,6.8,9.1,7.9C9.2,8.2,9.2,8.6,9,8.8C8.8,9,8.6,9.2,8.3,9.2z"/>
</svg>
