<?xml version="1.0" encoding="utf-8"?>
<!-- Generator: Adobe Illustrator 25.2.3, SVG Export Plug-In . SVG Version: 6.00 Build 0)  -->
<svg version="1.1" id="Icon_Description_Healthy-Services"
	 xmlns="http://www.w3.org/2000/svg" xmlns:xlink="http://www.w3.org/1999/xlink" x="0px" y="0px" viewBox="0 0 16 16"
	 style="enable-background:new 0 0 16 16;" xml:space="preserve">
<style type="text/css">
	.st0{fill:#0089D9;}
</style>
<g id="icon" transform="translate(0 -0.133)">
	<path id="Trazado_1375" class="st0" d="M15.9,10.1c-0.4-0.9-1-1.1-2-1.3c-0.7-0.2-1.4-0.3-2.2-0.4c-0.2-1.2-1.2-4.2-3.3-4.6
		c-0.1,0-0.2,0-0.3,0C8,3.4,7.7,2.9,7.2,2.6C6.7,2.2,6,2.1,5.4,2.2C4.8,2.3,4.2,2.8,3.9,3.4C3.6,3.9,3.5,4.5,3.7,5
		C3.6,5.1,3.5,5.2,3.3,5.2C2.1,6.1,1.8,7.8,1.5,9.1c-0.1,0.7-0.1,0.5-0.8,1c-1.4,1-0.4,3.5,0.5,3.7l0.6-1.2
		c-0.4-0.3-0.5-0.9-0.2-1.4c0,0,0,0,0,0c0.1-0.1,0.1-0.2,0.2-0.2c0.8-0.5,0.8-0.6,1.1-1.7C3,8.3,3.3,7,4.2,6.3
		c0.3-0.2,0.6-0.4,1-0.6c0,1.2,0.1,2.4,0.2,3.6C4.5,9.5,3.8,9.7,3.4,9.9c0.7,0,1.3,0,2,0c0.2,1.3,0.4,2.6,0.8,3.9l-0.2,0l-0.2,1.3
		c0.6,0.1,1.2,0.2,1.8,0.2c0.4,0,0.8,0,1.2-0.1l-0.2-1.3c-0.6,0.1-1.1,0.1-1.7,0c-0.4-1.3-0.7-2.7-0.9-4c0.8,0,1.9,0,3.3,0
		c1.2,0,2.5,0,3.7,0.1c0.4,0.1,1.4,0.3,1.5,0.7c0,0.2,0,0.3,0,0.5c-0.1,0.2-0.2,0.2-0.5,0.2c-0.1-0.3-0.1-0.5-0.2-0.8
		c-0.2,0.6-0.6,1.9-1.1,2.2l0.6,1.2c0.3-1.1,1.2-2,2.3-2.4C16,11.1,16,10.6,15.9,10.1z M4.9,4.4c0-0.1,0-0.3,0.1-0.4
		c0.1-0.3,0.4-0.5,0.7-0.6c0.3-0.1,0.6,0,0.8,0.2c0.1,0.1,0.2,0.2,0.3,0.4C6.1,4,5.5,4.2,4.9,4.4z M9.1,8.6L9.1,8.6
		C8.1,8.7,7,8.9,6,9.2C5.9,7.9,5.8,6.7,5.8,5.5c0.8-0.3,1.6-0.4,2.4-0.3c1.1,0.2,1.9,2.2,2.1,3.2C9.9,8.5,9.5,8.5,9.1,8.6z"/>
	<path id="Trazado_1376" class="st0" d="M3.7,12.5c-0.9,0-1.7,0.7-1.7,1.7s0.7,1.7,1.7,1.7c0.9,0,1.7-0.7,1.7-1.7c0,0,0,0,0,0
		C5.3,13.3,4.6,12.5,3.7,12.5z M3.7,14.8c-0.4,0-0.6-0.3-0.6-0.6c0-0.4,0.3-0.6,0.6-0.6c0,0,0,0,0,0l0,0c0.4,0,0.6,0.3,0.6,0.6
		C4.3,14.5,4,14.8,3.7,14.8z"/>
	<path id="Trazado_1377" class="st0" d="M7,10.5c-0.2,0-0.3,0.2-0.3,0.4c0,0.2,0.2,0.3,0.3,0.3h0l0.7-0.1c0.2,0,0.3-0.2,0.3-0.3
		c0-0.2-0.2-0.3-0.3-0.3l0,0L7,10.5z"/>
	<path id="Trazado_1378" class="st0" d="M13,12.8L13,12.8L13,12.8C13,12.8,13,12.8,13,12.8z"/>
	<path id="Trazado_1379" class="st0" d="M11,12.5c-0.9,0-1.7,0.7-1.7,1.7c0,0.9,0.7,1.7,1.7,1.7c0.9,0,1.7-0.7,1.7-1.7c0,0,0,0,0,0
		C12.7,13.3,11.9,12.5,11,12.5z M11.7,14.2c0,0.4-0.3,0.7-0.7,0.7s-0.7-0.3-0.7-0.7s0.3-0.7,0.7-0.7S11.7,13.8,11.7,14.2L11.7,14.2z
		"/>
	<path id="Trazado_1380" class="st0" d="M7.1,1.8c0.2,0.1,0.5-0.1,0.5-0.3c0,0,0,0,0,0l0.2-0.8c0-0.2-0.1-0.5-0.3-0.5
		C7.3,0.1,7.1,0.2,7,0.4L6.7,1.2C6.7,1.5,6.8,1.7,7.1,1.8z"/>
	<path id="Trazado_1381" class="st0" d="M4.5,1.5C4.6,1.7,4.8,1.9,5,1.8l0,0c0,0,0.1,0,0.1,0c0.2-0.1,0.3-0.3,0.2-0.5L5.2,0.7l0,0
		C5.1,0.4,4.9,0.3,4.6,0.4S4.3,0.7,4.3,0.9l0,0L4.5,1.5z"/>
	<path id="Trazado_1382" class="st0" d="M2.7,2.8L2.7,2.8C2.8,3,3,3,3.2,2.9c0,0,0.1,0,0.1-0.1c0.2-0.2,0.2-0.4,0-0.6c0,0,0,0,0,0
		L2.7,1.6l0,0C2.5,1.4,2.2,1.4,2,1.6S1.9,2,2.1,2.2L2.7,2.8z"/>
</g>
</svg>
