<?xml version="1.0" encoding="utf-8"?>
<!-- Generator: Adobe Illustrator 25.2.3, SVG Export Plug-In . SVG Version: 6.00 Build 0)  -->
<svg version="1.1" id="Icon_Description_Healthy-Doctor"
	 xmlns="http://www.w3.org/2000/svg" xmlns:xlink="http://www.w3.org/1999/xlink" x="0px" y="0px" viewBox="0 0 16 16.3"
	 style="enable-background:new 0 0 16 16.3;" xml:space="preserve">
<style type="text/css">
	.st0{fill:#0089D9;}
</style>
<g id="icon" transform="translate(0 0.667)">
	<path id="Trazado_1383" class="st0" d="M14,2.3h-2.7c0-1.1-0.9-2-2-2H6.7c-1.1,0-2,0.9-2,2H2c-1.1,0-2,0.9-2,2c0,0,0,0,0,0v9.3
		c0,1.1,0.9,2,2,2h12c1.1,0,2-0.9,2-2V4.3C16,3.2,15.1,2.3,14,2.3L14,2.3z M6.7,1.7h2.7C9.7,1.7,10,2,10,2.3c0,0,0,0,0,0H6
		C6,2,6.3,1.7,6.7,1.7C6.7,1.7,6.7,1.7,6.7,1.7z M14.7,13.7c0,0.4-0.3,0.7-0.7,0.7H2c-0.4,0-0.7-0.3-0.7-0.7V4.3
		C1.3,4,1.6,3.7,2,3.7h12c0.4,0,0.7,0.3,0.7,0.7V13.7z"/>
	<path id="Trazado_1384" class="st0" d="M10.9,8.4H8.6V6.1c0,0,0,0,0-0.1c0-0.3-0.3-0.6-0.7-0.6c-0.3,0-0.6,0.3-0.6,0.6v2.3H5.1
		c-0.3,0-0.6,0.3-0.6,0.6c0,0.3,0.3,0.6,0.6,0.6h2.3V12c0,0.3,0.3,0.6,0.6,0.6c0.3,0,0.6-0.3,0.6-0.6V9.7h2.3c0.2,0,0.3-0.1,0.4-0.2
		l0,0c0.2-0.2,0.2-0.6,0-0.9C11.2,8.5,11,8.4,10.9,8.4L10.9,8.4z"/>
</g>
</svg>
