<?xml version="1.0" encoding="utf-8"?>
<!-- Generator: Adobe Illustrator 25.2.3, SVG Export Plug-In . SVG Version: 6.00 Build 0)  -->
<svg version="1.1" id="Icon_Description_Healthy-Control"
	 xmlns="http://www.w3.org/2000/svg" xmlns:xlink="http://www.w3.org/1999/xlink" x="0px" y="0px" viewBox="0 0 16 16"
	 style="enable-background:new 0 0 16 16;" xml:space="preserve">
<style type="text/css">
	.st0{fill:#0089D9;}
</style>
<path id="icon" class="st0" d="M15.3,16H0.7V2h4V1.3h1.6c0.3-1,1.3-1.5,2.3-1.3c0.6,0.2,1.1,0.7,1.3,1.3h1.6V2h4V16z M2,14.7h12V3.3
	h-2.7V4H4.7V3.3H2V14.7z M6.9,1.3h2.2C9.1,1.2,9,1.1,8.9,1C8.7,0.8,8.3,0.7,8,0.7C7.4,0.7,6.9,1,6.9,1.3z M4,12.7v-1.3h6v1.3H4z
	 M4,10V8.7h8V10H4z M4,7.3V6h8v1.3H4z"/>
</svg>
