<?xml version="1.0" encoding="utf-8"?>
<!-- Generator: Adobe Illustrator 25.2.3, SVG Export Plug-In . SVG Version: 6.00 Build 0)  -->
<svg version="1.1" id="Icon_Description_Healthy-Resume"
	 xmlns="http://www.w3.org/2000/svg" xmlns:xlink="http://www.w3.org/1999/xlink" x="0px" y="0px" viewBox="0 0 16 16"
	 style="enable-background:new 0 0 16 16;" xml:space="preserve">
<style type="text/css">
	.st0{fill:#0089D9;}
</style>
<g id="icon">
	<path id="Trazado_1385" class="st0" d="M1.5,14.5V2.9h1.5C3,3.4,3.3,3.6,3.6,3.6h5.8c0.3,0,0.6-0.3,0.7-0.7h1.5v1.6
		c0.1,0,0.3,0,0.4,0c0.4,0,0.7,0,1.1,0.1V2.2h-2.9c-0.1-0.5-0.4-0.7-0.7-0.7H8.7C8.7,0.7,8.1,0,7.3,0c0,0,0,0,0,0H5.8
		C5,0,4.4,0.7,4.4,1.5c0,0,0,0,0,0H3.6C3.3,1.5,3,1.7,2.9,2.2H0V16h7.5c-0.3-0.4-0.5-0.9-0.6-1.5H1.5z M5.6,1.3
		c0.3-0.5,0.9-0.7,1.5-0.4C7.2,1,7.4,1.1,7.5,1.3c0.2,0.3,0.2,0.6,0.1,0.9h-2C5.4,1.9,5.4,1.5,5.6,1.3z"/>
	<path id="Trazado_1386" class="st0" d="M6.5,5.8H2.9v3.6h3.6V5.8z M5.8,8.7H3.6V6.5h2.2V8.7z"/>
	<path id="Trazado_1387" class="st0" d="M3.2,10.3c-0.2,0-0.4,0.2-0.3,0.4C2.9,10.8,3,11,3.2,11h2.2c0.2,0,0.4-0.1,0.4-0.3
		c0-0.2-0.1-0.4-0.3-0.4c0,0,0,0,0,0H3.2z"/>
	<path id="Trazado_1388" class="st0" d="M7.7,11.7H3.2c-0.2,0-0.4,0.2-0.3,0.4c0,0.2,0.2,0.3,0.3,0.3h4.4c0.2,0,0.4-0.1,0.4-0.3
		C8.1,11.9,7.9,11.7,7.7,11.7C7.7,11.7,7.7,11.7,7.7,11.7z"/>
	<path id="Trazado_1389" class="st0" d="M16,14c-0.6-0.4-1.5-1-2-1.3c-0.2-0.1-0.4-0.1-0.6-0.1c0-0.2,0-0.3,0.1-0.5
		c0.4-0.1,0.5-0.7,0.5-1.2c0.5-0.1,0.9-1,0.9-1.5c0-0.3-0.2-0.6-0.5-0.7c0.2-0.4,0.4-0.8,0.4-1.3c0-0.1,0-0.2,0-0.3
		c-0.1-0.6-0.6-1-1.2-0.9c0,0,0,0,0,0c-0.4-0.6-1-1-1.8-1c-1.3-0.1-2.5,0.8-2.6,2.1c0,0,0,0,0,0c0,0.6,0.2,0.8,0.4,1.2
		C9.3,8.8,9.1,9.1,9.1,9.4c0,0.5,0.3,1.4,0.8,1.5c0,0.5,0.2,0.9,0.6,1.1c0,0.1,0.1,0.3,0,0.5c-0.2,0-0.5,0.1-0.7,0.3
		C9.3,13.2,8.7,13.6,8,14c-0.1,0.1,0,0.2,0,0.3c0,0.1,0,0.2,0,0.4c0,0.9,2.1,1.3,4.1,1.3s4-0.4,3.9-1.3c0-0.1,0-0.3,0-0.4
		C16,14.2,16,14.1,16,14z M15.1,14.5c-1.9,0.8-4,0.8-6,0c0.6-0.4,1.3-0.8,1.7-1.1c0.3-0.1,0.5-0.3,0.5-0.6c0.1-0.4,0.1-0.9-0.1-1.3
		c-0.3-0.5-0.5-0.3-0.6-1c0-0.3-0.3-0.6-0.6-0.8c0-0.1,0-0.2,0-0.2c0.3-0.2,0.5-0.6,0.4-1c-0.4-0.7-0.2-1.6,0.5-2s1.6-0.2,2,0.5
		c0,0,0,0,0,0c0.7-0.4,0.8,1.4,0.4,1.5c-0.3,0.5,0,1.1,0.3,1c0,0.1,0,0.2,0,0.2c-0.3,0.1-0.5,0.4-0.5,0.7c0,0.3-0.4,0.6-0.6,1
		c-0.1,0.4,0,0.9,0.1,1.3c0.1,0.3,0.7,0.6,0.7,0.6C13.9,13.7,14.5,14.1,15.1,14.5L15.1,14.5L15.1,14.5L15.1,14.5z"/>
	<path id="Trazado_1390" class="st0" d="M13.3,8.3c-0.1-0.7-0.6-0.7-0.6-1.1l0,0c-0.7,0.5-1.6,0-2,1.1c0.3-0.3,0.7-0.4,1.1-0.3
		c0.4,0,0.7,0.1,0.8-0.3C12.6,8.1,13,8.1,13.3,8.3z"/>
</g>
</svg>
